<?xml version="1.0" encoding="UTF-8"?>
<svg width="52px" height="52px" viewBox="0 0 52 52" version="1.1" xmlns="http://www.w3.org/2000/svg" xmlns:xlink="http://www.w3.org/1999/xlink">
    <title>Extra icons / Product + service icons /5. 52px size/ 9. ACS</title>
    <g id="Extra-icons-/-Product-+-service-icons-/5.-52px-size/-9.-ACS" stroke="none" stroke-width="1" fill="none" fill-rule="evenodd">
        <g id="ACS-icon-Copy-2" fill-rule="nonzero">
            <path d="M39,0 L13,0 C5.82024444,0 0,5.82024444 0,13 L0,39 C0,46.1797556 5.82024444,52 13,52 L39,52 C46.1797556,52 52,46.1797556 52,39 L52,13 C52,5.82024444 46.1797556,0 39,0 L39,0 Z" id="Path" fill="#000000"></path>
            <path d="M37.7431889,14.5728556 L26.1876333,12.1170111 C26.0635556,12.0901444 25.9373111,12.0895667 25.8123667,12.1170111 L14.2568111,14.5728556 C13.8399444,14.6616889 13.5416667,15.0298778 13.5416667,15.4558444 L13.5423889,28.9700667 C13.7215,34.6399444 16.8452556,39.0070778 21.8987889,40.6518667 C23.2304222,41.0856333 24.6056778,41.2943556 25.9676444,41.2943556 C29.0376667,41.2943556 32.0218889,40.2176667 34.2773889,38.2855778 L34.2773889,39.3180667 C34.2773889,39.8166889 34.6822667,40.2208444 35.1801667,40.2208444 C35.6780667,40.2208444 36.0829444,39.8166889 36.0829444,39.3180667 L36.0829444,36.0666222 C36.0829444,35.568 35.6780667,35.1638444 35.1801667,35.1638444 L32.0359,35.1638444 C31.538,35.1638444 31.1331222,35.568 31.1331222,36.0666222 C31.1331222,36.5652444 31.538,36.9694 32.0359,36.9694 L33.0354556,36.9694 C30.2515778,39.3172 26.1681333,40.1414 22.4573556,38.935 C18.0951333,37.5145333 15.5030778,33.8618222 15.3472222,28.9416111 L15.3472222,16.1870222 L26,13.923 L36.6527778,16.1870222 L36.6527778,28.9127222 C36.6175333,30.0229222 36.4580667,31.0808333 36.1803,32.0562667 C36.0435111,32.5358222 36.3214222,33.0351667 36.7995333,33.1721 C37.2790889,33.3054222 37.7784333,33.0309778 37.9153667,32.5514222 C38.2341556,31.4342889 38.4176,30.2296222 38.4584778,28.9417556 L38.4584778,15.4558444 C38.4584778,15.0298778 38.1607778,14.6616889 37.7433333,14.5728556 L37.7431889,14.5728556 Z" id="Path" fill="#FFFFFF"></path>
            <path d="M26,34.2138333 C25.8441444,34.2138333 25.6882889,34.1736778 25.5486111,34.0925 L22.6597222,32.4244556 C22.3803667,32.2636889 22.2083333,31.9652667 22.2083333,31.6430111 L22.2083333,28.3076444 C22.2083333,27.9853889 22.3803667,27.6869667 22.6597222,27.5262 L25.5486111,25.8581556 C25.8285444,25.6952222 26.1720333,25.6966667 26.4513889,25.8581556 L29.3402778,27.5262 C29.6196333,27.6869667 29.7916667,27.9853889 29.7916667,28.3076444 L29.7916667,31.6430111 C29.7916667,31.9652667 29.6196333,32.2636889 29.3402778,32.4244556 L26.4513889,34.0925 C26.3117111,34.1736778 26.1565778,34.2138333 26,34.2138333 Z M24.0138889,31.1218556 L26,32.2686 L27.9861111,31.1218556 L27.9861111,28.8289444 L26,27.6822 L24.0138889,28.8289444 L24.0138889,31.1218556 Z" id="Shape" fill="#EE0000"></path>
            <path d="M31.7777778,29.5687889 C31.4223,29.5687889 31.0851667,29.3571778 30.9427444,29.0073333 C30.7536667,28.5461222 30.9752444,28.0184667 31.4364556,27.8302556 C31.9724889,27.6108444 32.3194444,27.0953222 32.3194444,26.5155222 C32.3194444,25.7947444 31.7735889,25.1931333 31.0499222,25.1168667 C30.5689222,25.0660222 30.2148889,24.6464111 30.2430556,24.1646889 L30.2557667,23.9361778 C30.2557667,22.0163667 28.6941778,20.4542 26.7743667,20.4542 C25.3877,20.4542 24.1337778,21.2772444 23.5801222,22.5503778 C23.4122778,22.9376333 22.9926667,23.1561778 22.5849,23.0778889 C22.4374222,23.0497222 22.2866222,23.0334 22.1306222,23.0334 C20.7793444,23.0334 19.6804111,24.1329111 19.6804111,25.4843333 C19.6804111,26.2870111 20.0753222,27.0408667 20.7363,27.5000556 C21.1460889,27.7843222 21.2476333,28.3463556 20.9626444,28.7561444 C20.6798222,29.1666556 20.1163444,29.2682 19.7065556,28.9824889 C18.5598111,28.1861667 17.8748556,26.8786556 17.8748556,25.4841889 C17.8748556,23.1031667 19.8362667,21.1501333 22.2321667,21.2291444 C23.1779889,19.6422778 24.8960111,18.6485 26.7742222,18.6485 C29.5459667,18.6485 31.8268889,20.7933556 32.0441333,23.5115111 C33.2727778,23.9734444 34.1247111,25.1506667 34.1247111,26.5153778 C34.1247111,27.8314111 33.3376333,29.0037222 32.1188111,29.5016222 C32.0074444,29.5474111 31.8917444,29.5686444 31.7774889,29.5686444 L31.7777778,29.5687889 Z" id="Path" fill="#EE0000"></path>
        </g>
    </g>
</svg>